# xmcd
#
# Track frame offsets:
#	150
#	20613
#	38227
#	63151
#	80983
#	92239
#	123908
#	167211
#	186434
#	211098
#	236030
#	251150
#	278925
#	301869
#
# Disc length: 4282
#
# Revision: 5
# Processed by: cddbd v1.5.1PL0 Copyright (c) Steve Scherf et al.
# Submitted via: CDex 1.51
# Normalized: r4:DSETVAR2,TDELIM( - )
#
DISCID=c810b80e
DTITLE=Various Artist - The Saint Soundtrack
DYEAR=1999
DGENRE=Soundtrack
TTITLE0=Orbital - The Saint Theme
TTITLE1=Sneaker Pimps - 6 Underground
TTITLE2=Moby - Oil 1
TTITLE3=Fluke - Atom Bomb
TTITLE4=Luscious Jackson - Roses Fade (Mojo Mix)
TTITLE5=The Chemical Brothers - Setting Sun (Instrumental)
TTITLE6=Underworld - Pearl's Girl
TTITLE7=Duran Duran - Out Of My Mind
TTITLE8=Daft Punk - Da Funk
TTITLE9=David Bowie - Little Wonder
TTITLE10=Superior - Polaroid Millenium
TTITLE11=Dreadzone - A Dream Within A Dream
TTITLE12=Duncan Sheik - In The Absence Of The Sun
TTITLE13=Everyting But A Girl - Before Today
EXTD=YEAR: 1999
EXTT0=
EXTT1=
EXTT2=
EXTT3=
EXTT4=
EXTT5=
EXTT6=
EXTT7=
EXTT8=
EXTT9=
EXTT10=
EXTT11=
EXTT12=
EXTT13=
PLAYORDER=
